<?xml version="1.0" encoding="utf-8"?>
<!-- Generator: Adobe Illustrator 23.1.0, SVG Export Plug-In . SVG Version: 6.00 Build 0)  -->
<svg version="1.1" id="Layer_1" xmlns="http://www.w3.org/2000/svg" xmlns:xlink="http://www.w3.org/1999/xlink" x="0px" y="0px"
	 viewBox="0 0 500 500" style="enable-background:new 0 0 500 500;" xml:space="preserve">
<style type="text/css">
	.st0{fill:#6E7073;}
	.st1{fill:#A8AAAE;}
	.st2{fill:#EF3D25;}
	.st3{fill:#394451;}
	.st4{fill:#2278BD;}
	.st5{fill:#1E1E1E;}
	.st6{fill:#8C8C8C;}
	.st7{fill:#AAAAAB;}
	.st8{fill:#333333;}
</style>
<g>
	<path class="st0" d="M216.6,289.7l-22.2-47.2c-0.8-1.6-2.1-2.8-3.7-3.3c-0.5-0.2-1.1-0.4-1.7-0.4h-6.7v-6.6
		c9.6-3.9,16.3-13.2,16.3-24.2c0-14.4-11.7-26.1-26.1-26.1c-14.4,0-26.1,11.7-26.1,26.1c0,11.8,7.8,21.7,18.5,25v5.8h-5.8
		c-0.3,0-0.5,0-0.7,0.1c0,0,0,0,0,0c-0.3,0-0.6,0.1-0.9,0.2c-1.7,0.5-3.1,1.7-3.9,3.4l-22.2,47.2c-1.5,3.2-0.1,7,3,8.4
		c3.2,1.5,7,0.1,8.4-3l11.3-24.1v96.1c0,0.1,0.1,0.1,0.1,0.1h16.1c0.1,0,0.1-0.1,0.1-0.1v-56.3c0-2,1.4-4,3.4-4.3
		c2.5-0.3,4.6,1.6,4.6,3.9v56.6c0,0.1,0.1,0.1,0.1,0.1h14.5c0.1,0,0.1-0.1,0.1-0.1v-97.3l11.9,25.3c1.5,3.2,5.3,4.5,8.4,3
		C216.7,296.7,218.1,292.9,216.6,289.7z"/>
	<path class="st0" d="M354.7,289.7l-22.2-47.2c-0.8-1.6-2.1-2.8-3.7-3.3c-0.5-0.2-1.1-0.4-1.7-0.4h-6.7v-6.6
		c9.6-3.9,16.3-13.2,16.3-24.2c0-14.4-11.7-26.1-26.1-26.1s-26.1,11.7-26.1,26.1c0,11.8,7.8,21.7,18.5,25v5.8h-5.8
		c-0.3,0-0.5,0-0.7,0.1c0,0,0,0,0,0c-0.3,0-0.6,0.1-0.9,0.2c-1.7,0.5-3.1,1.7-3.9,3.4l-22.2,47.2c-1.5,3.2-0.1,7,3,8.4
		c3.2,1.5,7,0.1,8.4-3l11.3-24.1v96.1c0,0.1,0.1,0.1,0.1,0.1h16.1c0.1,0,0.1-0.1,0.1-0.1v-56.3c0-2,1.4-4,3.4-4.3
		c2.5-0.3,4.6,1.6,4.6,3.9v56.6c0,0.1,0.1,0.1,0.1,0.1h14.5c0.1,0,0.1-0.1,0.1-0.1v-97.3l11.9,25.3c1.5,3.2,5.3,4.5,8.4,3
		C354.8,296.7,356.2,292.9,354.7,289.7z"/>
	<path class="st1" d="M160.7,289.7l-22.2-47.2c-0.8-1.6-2.1-2.8-3.7-3.3c-0.5-0.2-1.1-0.4-1.7-0.4h-6.7v-6.6
		c9.6-3.9,16.3-13.2,16.3-24.2c0-14.4-11.7-26.1-26.1-26.1s-26.1,11.7-26.1,26.1c0,11.8,7.8,21.7,18.5,25v5.8h-5.8
		c-0.3,0-0.5,0-0.7,0.1c0,0,0,0,0,0c-0.3,0-0.6,0.1-0.9,0.2c-1.7,0.5-3.1,1.7-3.9,3.4l-22.2,47.2c-1.5,3.2-0.1,7,3,8.4
		c3.2,1.5,7,0.1,8.4-3L98.3,271v96.1c0,0.1,0.1,0.1,0.1,0.1h16.1c0.1,0,0.1-0.1,0.1-0.1v-56.3c0-2,1.4-4,3.4-4.3
		c2.5-0.3,4.6,1.6,4.6,3.9v56.6c0,0.1,0.1,0.1,0.1,0.1h14.5c0.1,0,0.1-0.1,0.1-0.1v-97.3l11.9,25.3c1.5,3.2,5.3,4.5,8.4,3
		C160.8,296.7,162.2,292.9,160.7,289.7z"/>
	<path class="st1" d="M424.5,289.7l-22.2-47.2c-0.8-1.6-2.1-2.8-3.7-3.3c-0.5-0.2-1.1-0.4-1.7-0.4h-6.7v-6.6
		c9.6-3.9,16.3-13.2,16.3-24.2c0-14.4-11.7-26.1-26.1-26.1c-14.4,0-26.1,11.7-26.1,26.1c0,11.8,7.8,21.7,18.5,25v5.8H367
		c-0.3,0-0.5,0-0.7,0.1c0,0,0,0,0,0c-0.3,0-0.6,0.1-0.9,0.2c-1.7,0.5-3.1,1.7-3.9,3.4l-22.2,47.2c-1.5,3.2-0.1,7,3,8.4
		c3.2,1.5,7,0.1,8.4-3l11.3-24.1v96.1c0,0.1,0.1,0.1,0.1,0.1h16.1c0.1,0,0.1-0.1,0.1-0.1v-56.3c0-2,1.4-4,3.4-4.3
		c2.5-0.3,4.6,1.6,4.6,3.9v56.6c0,0.1,0.1,0.1,0.1,0.1H401c0.1,0,0.1-0.1,0.1-0.1v-97.3l11.9,25.3c1.5,3.2,5.3,4.5,8.4,3
		C424.6,296.7,426,292.9,424.5,289.7z"/>
	<path class="st2" d="M299.8,259.2l-31.5-66.9c-1.1-2.3-3-3.9-5.2-4.7c-0.7-0.3-1.5-0.5-2.4-0.5h-9.6v-9.4
		c13.6-5.5,23.1-18.8,23.1-34.3c0-20.5-16.6-37-37-37s-37,16.6-37,37c0,16.7,11,30.8,26.2,35.4v8.3h-8.2c-0.4,0-0.7,0.1-1,0.1
		c0,0,0,0,0,0c-0.4,0.1-0.8,0.2-1.2,0.3c-2.4,0.7-4.4,2.4-5.6,4.8l-31.5,66.9c-2.1,4.5-0.2,9.9,4.3,12c4.5,2.1,9.9,0.2,12-4.3
		l16.1-34.2V369c0,0.1,0.1,0.2,0.2,0.2h22.8c0.1,0,0.2-0.1,0.2-0.2v-79.9c0-2.9,2-5.6,4.8-6c3.5-0.5,6.5,2.2,6.5,5.6V369
		c0,0.1,0.1,0.2,0.2,0.2h20.5c0.1,0,0.2-0.1,0.2-0.2V231l16.9,35.9c2.1,4.5,7.5,6.4,12,4.3C300,269.1,301.9,263.7,299.8,259.2z"/>
	<path class="st2" d="M265.3,393.6h-52.8c-0.7,0-1.3-0.6-1.3-1.3v-10.8c0-0.7,0.6-1.3,1.3-1.3h52.8c0.7,0,1.3,0.6,1.3,1.3v10.8
		C266.6,393,266,393.6,265.3,393.6z"/>
</g>
</svg>
