<?xml version="1.0" encoding="utf-8"?>
<!-- Generator: Adobe Illustrator 23.1.0, SVG Export Plug-In . SVG Version: 6.00 Build 0)  -->
<svg version="1.1" id="Layer_1" xmlns="http://www.w3.org/2000/svg" xmlns:xlink="http://www.w3.org/1999/xlink" x="0px" y="0px"
	 viewBox="0 0 500 500" style="enable-background:new 0 0 500 500;" xml:space="preserve">
<style type="text/css">
	.st0{fill:#6E7073;}
	.st1{fill:#A8AAAE;}
	.st2{fill:#EF3D25;}
	.st3{fill:#394451;}
	.st4{fill:#2278BD;}
	.st5{fill:#1E1E1E;}
	.st6{fill:#8C8C8C;}
	.st7{fill:#AAAAAB;}
	.st8{fill:#333333;}
</style>
<g>
	<path class="st2" d="M423.3,317.6c0-16.5-3.3-32.2-11.3-46.5c-17.7-31.6-44.6-48.8-81-50.4c-1.6-0.1-3.5,0.3-4.7,1.3
		c-12.1,9.8-25.6,16.5-41,20c0,1.1-0.1,1.8,0,2.5c1.7,12.5,3.5,24.9,5.2,37.4c4,28.6,8.1,57.1,12.1,85.7c0.4,2.8-0.3,5-2.6,6.8
		c-3.3,2.7-6.6,5.5-9.8,8.3c-0.9,0.8-1.9,1.8-2.2,2.8c-1.4,5.5-2.4,11.1-3.8,16.7c-2,8.4-4,16.7-6.4,25c-1.1,3.7-3.1,7-4.8,10.8
		c1.3,0,2.4,0,3.5,0c41.7,0,83.4,0,125.2,0c13.2,0,21.3-8,21.3-21.2C423.3,383.7,423.2,350.6,423.3,317.6z M382.7,301.9
		c-2.8,3.1-5.7,6-8.7,8.9c-1.7,1.6-2.3,3.1-1.8,5.5c0.9,4.2,1.5,8.4,2.1,12.7c0.4,3.1-0.2,5.9-3,7.8c-2.8,2-5.7,1.7-8.6,0.1
		c-4.3-2.3-8.6-6.2-12.9-6.3c-4.2,0-8.4,4-12.6,6.2c-2.9,1.6-5.8,1.9-8.7,0c-2.8-1.9-3.4-4.7-3-7.7c0.6-4.4,1.6-8.7,2-13
		c0.1-1.6-0.5-3.6-1.5-4.8c-2.7-3.2-5.7-6-8.6-9c-2.2-2.3-3.3-4.9-2.4-8c1-3.3,3.4-4.9,6.8-5.4c4.1-0.6,8.2-1.2,12.3-2.1
		c1.2-0.3,2.6-1.3,3.1-2.4c2.1-4,3.7-8.3,6-12.1c1.3-2.2,3.8-3.6,5-4.6c5.1,0.1,7.4,2.1,8.9,5.1c1.8,3.7,3.4,7.6,5.4,11.2
		c0.7,1.2,2.2,2.5,3.6,2.8c4,0.9,8.2,1.3,12.3,2.1C385,290.2,387.3,296.7,382.7,301.9z"/>
	<path class="st2" d="M110.5,338.1c20.2,0,40.4,0,60.6,0c2.1,0,4.2-0.1,6.2,0.5c3,0.8,3.5-0.7,3.5-3c0.1-3-0.2-6.1,0.1-9.1
		c1.2-12.6,7.7-21.8,19.3-26.8c11.7-5,22.7-2.8,32.7,4.8c0.8,0.6,1.6,1.2,2.8,2c3.2-21.8,6.4-43,9.5-64.2
		c-15.6-3.4-29-9.9-41.1-19.3c-1.7-1.3-4.2-2.3-6.2-2.2c-38.6,2.1-66,21-83,55.3c-9.6,19.5-9.4,40.4-8.6,62
		C107.9,338.1,109.2,338.1,110.5,338.1z"/>
	<path class="st2" d="M279.1,373c1.3-10.9-7.5-19.1-19.2-19.2c-8.1-0.1-16.1,0-24.4,0c-0.1-0.8-0.2-1.1-0.2-1.3
		c0.1-0.8,0.3-1.7,0.5-2.5c2.2-11.7,0.2-22.7-6.5-32.5c-5-7.2-13.9-10.2-22-7.9c-8.3,2.3-13.7,8.7-14.6,17.7
		c-0.4,4.1,1,8.8-0.5,12.3c-3.1,7.5-7.6,14.5-11.5,21.7c-0.4-0.2-0.7-0.3-1.1-0.5c0-1.1,0-2.1,0-3.2c0-5.8-1.9-7.7-7.6-7.7
		c-8.9,0-17.9,0-26.8,0c-4.4,0-6.7,2.2-6.7,6.5c0,25.1,0,50.2,0,75.2c0,4.1,2.2,6.3,6.4,6.4c9.4,0.1,18.8,0.1,28.3-0.1
		c1.6,0,3.9-0.8,4.8-2c2.3-3.2,4.5-2.1,7.3-0.9c3,1.3,6.2,2.8,9.3,2.9c18,0.3,36,0.2,53.9,0.1c7.4-0.1,13.8-3.3,16.7-10
		c3.3-7.5,5.5-15.6,7.3-23.7c0.7-3.2,1.5-6.4,2.3-9.7C276.6,387.4,278.2,380.2,279.1,373z M261.7,379.5c-0.5,0.2-0.9,0.3-1.7,0.6
		c2.8,2.4,5.1,5,4.2,8.9c-1,4-3.8,5.8-8.2,6.3c3.5,2.8,5.9,5.7,4.3,10.1c-1.5,4-4.7,5.3-9.3,5.3c1,0.8,1.6,1.2,2.2,1.8
		c2.4,2.3,3.4,5.1,2.2,8.3c-1.2,3.3-3.7,5.2-7.2,5.2c-4.8,0.1-9.5,0-14.3,0c-12.5,0-24.9,0-37.4,0c-1.5,0-3.1-0.3-4.6-0.8
		c-3.9-1.4-7.7-3-11.5-4.6c-0.2,0.3-0.4,0.6-0.6,0.9c-0.1-0.8-0.3-1.6-0.3-2.4c0-13.1-0.1-26.2,0.1-39.3c0-1.4,1.1-3.3,2.2-3.9
		c3.7-2.2,6.5-5,8.5-8.7c3.6-6.6,7.5-13.2,11.4-19.7c2.3-3.9,2.8-8,2.5-12.4c-0.2-2.1-0.3-4.2-0.1-6.2c0.4-4.6,2.7-7.4,6.5-8.3
		c3.5-0.9,7.5,0.8,9.7,4.4c3.7,6.3,5.4,13.2,4.2,20.4c-1,6.5-2.9,12.8-4.5,19.9c11.1,0,22.1,0,33.1,0c2.1,0,4.2,0,6.2,0
		c4.7,0.2,7.5,2.1,8.1,5.4C268.2,374.6,265.9,378,261.7,379.5z"/>
	<path class="st2" d="M264.8,232.3c46.9,0,85-38.1,85.1-84.9c0-47.3-38-85.4-85.3-85.4c-47,0-85.1,38.1-85.1,85.3
		C179.5,194.3,217.7,232.4,264.8,232.3z M264.8,73.8c40.5,0,73.3,33,73.3,73.7c0,40.3-33.1,73.1-73.5,73.1
		c-40.5,0-73.3-33-73.3-73.7C191.3,106.6,224.3,73.8,264.8,73.8z"/>
	<path class="st2" d="M247.7,303.9c-2.4,12.9-1.9,25.3,1.6,38.2c16.7-1.3,32,1.2,40.6,18.6c-5.5-39-11-77.9-16.4-116.6
		c-5.9,0-11.1,0-16.6,0C253.8,264.4,251.3,284.3,247.7,303.9z"/>
	<path class="st2" d="M83.6,376.2c6,0,12,0,17.9,0c6.1,0,12.2,0,18.3,0c4,0,6.6-2.3,6.7-5.7c0.1-3.6-2.6-6-6.7-6
		c-12.1,0-24.2,0-36.3,0c-4.3,0-6.9,2.3-6.9,5.9C76.7,374,79.3,376.2,83.6,376.2z"/>
	<path class="st2" d="M119.8,411.5c-12.1,0-24.2,0-36.3,0c-4.3,0-6.9,2.3-6.8,5.9c0,3.6,2.6,5.8,7,5.8c5.9,0,11.7,0,17.6,0
		c6.2,0,12.5,0,18.7,0c4,0,6.6-2.3,6.6-5.7C126.7,413.9,124,411.5,119.8,411.5z"/>
	<path class="st2" d="M120.9,388.1c-5-0.2-10-0.2-15,0c-3.5,0.1-5.8,2.7-5.7,5.9c0,3.2,2.4,5.6,5.9,5.8c2.4,0.1,4.9,0,7.3,0
		c2.2,0,4.4,0,6.6,0c0.2,0,0.5,0,0.7,0c3.5-0.2,5.8-2.6,5.9-5.8C126.7,390.8,124.3,388.2,120.9,388.1z"/>
	<path class="st2" d="M354.3,294.6c-1.2-3-2.8-5.8-4.5-9.3c-1.7,3.5-3.2,6.1-4.2,8.9c-0.9,2.4-2.4,3.4-4.9,3.6c-3,0.2-6,0.9-9,1.4
		c-0.3,0.5-0.7,1-1,1.5c2.5,2.1,5,4.3,7.5,6.3c1.9,1.5,2.2,3.2,1.7,5.5c-0.7,3.1-1,6.2-1.6,10.3c3.6-1.9,6.2-3.2,8.6-4.8
		c2-1.3,3.7-1.3,5.7-0.1c2.5,1.6,5.3,2.9,8.6,4.7c-0.5-3.7-0.6-6.6-1.4-9.3c-0.9-3.1,0-5.1,2.3-7c2.2-2,4.2-4.3,6.7-6.9
		c-3.9-0.6-7-1.2-10.1-1.6C356.6,297.5,355.2,296.7,354.3,294.6z"/>
</g>
</svg>
