<?xml version="1.0" encoding="utf-8"?>
<!-- Generator: Adobe Illustrator 23.1.0, SVG Export Plug-In . SVG Version: 6.00 Build 0)  -->
<svg version="1.1" id="Layer_1" xmlns="http://www.w3.org/2000/svg" xmlns:xlink="http://www.w3.org/1999/xlink" x="0px" y="0px"
	 viewBox="0 0 500 500" style="enable-background:new 0 0 500 500;" xml:space="preserve">
<style type="text/css">
	.st0{fill:#6E7073;}
	.st1{fill:#A8AAAE;}
	.st2{fill:#EF3D25;}
	.st3{fill:#394451;}
	.st4{fill:#2278BD;}
	.st5{fill:#1E1E1E;}
	.st6{fill:#8C8C8C;}
	.st7{fill:#AAAAAB;}
	.st8{fill:#333333;}
</style>
<g>
	<path class="st6" d="M332,372.7c16-7.2,31.9-14.6,47.9-21.7c10.3-4.6,20.5-5.6,30,1.7c5.1,3.9,7.1,7.5,0,12
		c-35.1,22.5-69.6,45.9-105.1,67.6c-17.8,10.8-37.8,11.6-58.1,5.6c-23.1-6.8-46.3-13.2-69.4-19.8c-8.6-2.5-16.8-2.1-24.9,2.3
		c-4.6,2.5-9,5.9-14.5,6.1c-1.6-1.4-2.8-3.1-2.9-5.2c-0.7-21.7-3.8-43.6,3-64.9c15.2-17.7,35.4-20.3,56.9-18.3
		c6.5,0.6,13.2,2.1,18.8,5.3c17.8,10.3,37,12,56.9,11c10.3-0.5,20.3,2,30.5,3.2c7.3,0.9,12.8,5.1,16.9,11.1c2.6,3.8,4.8,8,2.2,12.5
		c-2.5,4.3-7,3.7-11,3.2c-15.5-1.9-31.1-0.8-46.6-0.9c-2.8,0-5.8-0.3-8.2,1.9c-0.2,3,2.5,2.9,4,2.9c18.4-0.6,36.7,3.1,55.1,2.9
		c15.1-0.2,15.1-0.2,16.8-15.2C330.6,374.7,331.3,373.6,332,372.7z"/>
	<path class="st2" d="M140.2,355.3c-2.5,23.7-2.4,47.5-2.2,71.2c0.6,8.9-3.1,12.7-12.2,10.6c-1.9-0.5-4.1,0-6.1-0.2
		c-10.8-1.1-25.7,4.4-31.4-3c-5.3-7-1.6-21.1-1.4-32c0.5-22,1.8-44,1.8-66c0-9.1,3.5-11.1,11.5-10.4c8.1,0.7,16.4,1.1,24.5,0.3
		c11.6-1.2,17.8,2.1,15.8,14.9C144.9,345.6,143.4,350.4,140.2,355.3z"/>
	<path class="st7" d="M140.2,355.3c0.1-4.9,0.2-9.8,0.2-14.7c27.5-16,55.3-17.3,83.9-2.5c10.2,5.3,21.2,8.2,33,7.5
		c10.2-0.6,20.4,0.1,30.7-0.1c20.6-0.4,35,9,44,27.2c0.8,4,1.9,7.9,2.3,11.9c0.6,6.4-2.1,10.2-9.1,10c-24-0.8-48.1-1.6-72.1-2.5
		c-3.6-0.1-6.6-1.8-6.7-5.8c-0.1-4.7,3.3-6.4,7.3-6.3c18.8,0.5,37.6-1.6,56.3,1.3c3.1,0.5,6.6,2.4,8.7-1.4c1.7-2.9-0.5-5.6-2-7.9
		c-4.1-6.4-9.7-10.8-17.7-11.7c-16.6-1.9-33.3-3-50-2.3c-8,0.3-15.6-1.1-22.4-4.9C197.3,336.2,168.5,336.3,140.2,355.3z"/>
	<g>
		<g>
			<path class="st2" d="M255,58.4c-5.3,0.4-6.5,4.2-6.5,8.7c0,9.4,0,18.8,0,28.2c0,9,0,18,0,27c0,4.4,0.8,8.8,6,9.1
				c5.5,0.3,8.2-3.9,8.2-8.8c0.2-18.8,0.2-37.6-0.1-56.4C262.5,62.2,260.5,58,255,58.4z"/>
			<path class="st2" d="M207.7,90.4c-3.9,0-5.9,2.6-6,6.3c-0.2,4.5,0,8.9,0,13.4c0,0,0,0-0.1,0c0,4.9-0.1,9.7,0,14.6
				c0.1,3.6,1.7,6.5,5.6,6.7c4.6,0.3,6.6-2.7,6.7-6.8c0.1-9.3,0.1-18.7-0.1-28C213.8,92.9,211.6,90.4,207.7,90.4z"/>
			<path class="st2" d="M309.8,111.1c0-4.5,0.1-8.9,0-13.4c-0.1-4.1-1.8-7.3-6.3-7.3c-4.6,0.1-6.1,3.5-6.1,7.5
				c-0.1,8.9-0.1,17.8,0.1,26.8c0.1,3.6,1.8,6.5,5.7,6.7c4.6,0.3,6.5-2.8,6.6-6.9C309.9,120,309.8,115.6,309.8,111.1z"/>
		</g>
	</g>
	<path class="st8" d="M255.9,149.3c-47.7-0.4-86.4,38.4-86.4,86.6c0,48,37.5,85.6,85.5,85.7c47.8,0.2,86.3-37.5,86.7-84.9
		C342.1,188.8,303.7,149.7,255.9,149.3z M269.8,279.3c-4.4,2.7-9.7,4-9.3,11.1c0.2,3.4-3.2,4.7-6.1,4.7c-2.4,0-5.7-1.5-5.5-4
		c0.8-8-5.2-9.8-10.1-13.3c-6.3-4.4-9.8-10.9-10.5-21.6c-0.1-1,0.3-5,4.8-5.9c6-1.2,7.4,2.9,8.3,7.9c1.3,7.2,5.9,11.6,13.4,12
		c6.3,0.3,10.9-2.4,13.7-8.3c2.9-6,1.1-11.2-3-15.7c-2.6-2.9-6.1-3.6-9.9-4.1c-15.6-2.4-24.7-9.5-26.7-21.2
		c-2.3-13.4,1.8-24.4,14.5-30.7c4-2,4.9-4.7,5-8.7c0.1-3.3,2.3-5.2,5.5-5.4c3.8-0.3,6.9,1.6,6.6,5.5c-0.4,6.1,4.1,7.1,7.9,9.2
		c8.1,4.4,12.6,11.4,14,20.4c0.7,4.3,0.1,8.5-5.3,9.3c-4.5,0.7-6.7-2-7.3-6.3c-0.2-1.6-0.8-3.2-1.4-4.7c-2.8-7.1-8.4-10-15.7-8.7
		c-7.4,1.3-11.6,6.3-11.6,13.6c-0.1,7.4,4.1,12.2,11.4,13.8c2.8,0.6,5.7,0.9,8.4,1.5c12.2,2.7,19.4,10.6,21.3,22.5
		C284.3,263.6,279.8,273.1,269.8,279.3z"/>
</g>
</svg>
