<?xml version="1.0" encoding="utf-8"?>
<!-- Generator: Adobe Illustrator 23.1.0, SVG Export Plug-In . SVG Version: 6.00 Build 0)  -->
<svg version="1.1" id="Layer_1" xmlns="http://www.w3.org/2000/svg" xmlns:xlink="http://www.w3.org/1999/xlink" x="0px" y="0px"
	 viewBox="0 0 500 500" style="enable-background:new 0 0 500 500;" xml:space="preserve">
<style type="text/css">
	.st0{fill:#6E7073;}
	.st1{fill:#A8AAAE;}
	.st2{fill:#EF3D25;}
	.st3{fill:#394451;}
	.st4{fill:#2278BD;}
	.st5{fill:#1E1E1E;}
	.st6{fill:#8C8C8C;}
	.st7{fill:#AAAAAB;}
	.st8{fill:#333333;}
</style>
<g>
	<path class="st4" d="M399.2,415.1c-4.1-22.2-7.6-44.5-12.6-66.4c-3.3-14.5-13.2-24.4-27.4-29.5c-20.4-7.4-40.7-15-61.1-22.4
		c-1.8-0.6-3.7-0.8-5.7-1.2c-9.3,34.3-14.1,69.1-25.9,102.3c-1.4-9-0.8-17.8-1.5-26.4c-0.6-7.8-0.6-16.9-4.6-23
		c-5.8-9-6.1-15,2.3-21.4c0.6-0.5,0.9-1.4,1.7-2.8c-4.9-5.2-9.9-10.6-15.2-16.2c-5.8,5.5-11,10.3-16.5,15.4
		c3.9,4.7,7.5,9.1,11.6,14.1c-18.6,17.9-9.7,41.2-11.8,62.3c-1,0.1-2,0.2-3,0.3c-8.3-34.9-16.6-69.7-25.2-106.1
		c-24.2,9.7-47.6,19.4-71.3,28.5c-10.8,4.2-18,11.4-20.5,22.4c-5,21.4-9.7,42.8-13.5,64.4c-1.9,10.7-1.2,21.9-1.7,33
		c3.1,0.2,4.6,0.4,6,0.4c96.5,0,193,0.1,289.4-0.1c3.4,0,6.8-2,10.2-3.1c0-1.1,0-2.3,0-3.4C401.6,429,400.5,422,399.2,415.1z"/>
	<path class="st4" d="M204.2,232.8c4.8,6,7.4,13.4,7.4,21.1v15.4c0,4.5,3.6,8.1,8.1,8.1h0.5c3.5,0,6.5,2.2,7.7,5.5
		c2.1,5.9,6.2,12.1,16.6,11.9c8.6-0.2,12.1-6.9,13.5-11.9c0.9-3.3,3.6-5.7,7-6l2.6-0.2c4-0.4,7.2-3.7,7.4-7.7l0.8-18.1
		c0.3-6.4,2.3-12.6,5.8-18c12.3-18.8,26.4-37.3,26.4-58.3c0-24.9-19.1-61.8-61.5-62.7c-42.4-0.9-68.6,29.7-69.1,61.2
		C177,195.1,194,220,204.2,232.8z M245.5,129.1c30.6,0.6,44.1,32,44.3,46.1c0.2,12.2-9.3,29.6-19.1,42.8c-2.4,3.2-3.3,6.5-4,8.7
		l-46.4,0.6c-2-4.8-2-4.8-5.5-9.2c-7.3-9.4-19.6-27.7-19.3-44C196.1,151,214.9,128.5,245.5,129.1z"/>
	<path class="st4" d="M242.7,98.3c4.4,0,7.9-3.6,7.9-7.9V65.2c0-4.4-3.6-7.9-7.9-7.9s-7.9,3.6-7.9,7.9v25.2
		C234.8,94.8,238.4,98.3,242.7,98.3z"/>
	<path class="st4" d="M308.6,119.4l17.3-18.2c3-3.2,2.9-8.2-0.3-11.2c-3.2-3-8.2-2.9-11.2,0.3l-17.3,18.2c-3,3.2-2.9,8.2,0.3,11.2
		C300.5,122.7,305.6,122.6,308.6,119.4z"/>
	<path class="st4" d="M177.8,119.6c3,3.2,8,3.4,11.2,0.4c3.2-3,3.4-8,0.4-11.2l-17.1-18.4c-3-3.2-8-3.4-11.2-0.4
		c-3.2,3-3.4,8-0.4,11.2L177.8,119.6z"/>
	<path class="st4" d="M131,179.9l25.1,1.4c4.4,0.2,8.1-3.1,8.4-7.5c0.2-4.4-3.1-8.1-7.5-8.4l-25.1-1.4c-4.4-0.2-8.1,3.1-8.4,7.5
		C123.2,175.9,126.6,179.6,131,179.9z"/>
	<path class="st4" d="M322.3,174.9c0.1,4.4,3.7,7.9,8.1,7.8l25.2-0.6c4.4-0.1,7.9-3.7,7.8-8.1c-0.1-4.4-3.7-7.9-8.1-7.8l-25.2,0.6
		C325.7,166.9,322.2,170.5,322.3,174.9z"/>
	<path class="st4" d="M316.4,225.2c-3.4-2.8-8.4-2.2-11.2,1.2c-2.8,3.4-2.2,8.4,1.2,11.2l19.6,15.8c3.4,2.8,8.4,2.2,11.2-1.2
		c2.8-3.4,2.2-8.4-1.2-11.2L316.4,225.2z"/>
	<path class="st4" d="M164.6,214.8l-21.7,12.7c-3.8,2.2-5.1,7.1-2.9,10.9c2.2,3.8,7.1,5.1,10.9,2.9l21.7-12.7
		c3.8-2.2,5.1-7.1,2.9-10.9h0C173.2,213.9,168.4,212.6,164.6,214.8z"/>
</g>
</svg>
